<svg xmlns="http://www.w3.org/2000/svg" width="3795" height="1422" viewBox="0 0 3795 1422">
  <metadata><?xpacket begin="﻿" id="W5M0MpCehiHzreSzNTczkc9d"?>
<x:xmpmeta xmlns:x="adobe:ns:meta/" x:xmptk="Adobe XMP Core 5.6-c142 79.160924, 2017/07/13-01:06:39        ">
   <rdf:RDF xmlns:rdf="http://www.w3.org/1999/02/22-rdf-syntax-ns#">
      <rdf:Description rdf:about=""/>
   </rdf:RDF>
</x:xmpmeta>
                                                                                                    
                                                                                                    
                                                                                                    
                                                                                                    
                                                                                                    
                                                                                                    
                                                                                                    
                                                                                                    
                                                                                                    
                                                                                                    
                                                                                                    
                                                                                                    
                                                                                                    
                                                                                                    
                                                                                                    
                                                                                                    
                                                                                                    
                                                                                                    
                                                                                                    
                                                                                                    
                           
<?xpacket end="w"?></metadata>
<defs>
    <style>
      .cls-1 {
        fill: #fff;
        fill-rule: evenodd;
      }
    </style>
  </defs>
  <path id="形狀_1" data-name="形狀 1" class="cls-1" d="M583,595s-79.992,78.055-10,67c70.114-11.075,166.579-58.437,150-84-16.612-25.613-73.41-14.131-85-5-14.435,11.371,50.7-46.507,139-35,100.29,13.07-99,192-137,215s171.122-79.23,235-211c40.566-83.683-174-65-227-54-30.15,6.257,168.435-46,271.923-7.965,68.3,25.1-3.016,159.086-70.923,214.965-69.971,57.577-136.173,101.872-241,143-67.446,26.462-93.691,29.036-156,30-131.486,2.033-122.858-173.465,50-295,15.63-10.989-182.464,246.9,60.2,147.372,6.335-2.6-38.631,3.783-71.2-6.372C453.133,702.192,460.614,628.524,583,595Z"/>
  <path id="形狀_2" data-name="形狀 2" class="cls-1" d="M639,431c-2.912-2.044,591.04-95.927,439.25,130.29-57.45,85.62-228.356,209.919-369.3,283.943-508.43,267.037-535.971-13.785-236.348-301.919C481.356,534.9,288.071,633.771,185,795c-92.885,145.3,21.05,304.07,303,268,85.462-10.93,382.649-137.083,607-309,219.36-168.1,326.37-398.715-99-401-47.839-.257-118.326,8.224-201,29C699.371,406.031,639,431,639,431Z"/>
  <path id="PHANTASTUDIO_拷貝" data-name="PHANTASTUDIO 拷貝" class="cls-1" d="M1480.7,604.486c0-8.758,4.53-19.328,26.27-19.328,20.84,0,41.68,6.946,41.68,45.3,0,32.617-15.71,45.905-45,45.905-7.55,0-19.63-.6-22.95-1.51V604.486Zm-25.67,9.362v121.1c0,25.066-5.14,26.576-26.28,27.482-1.81,1.812-1.81,8.154,0,9.966,13.59-.3,28.48-0.6,39.26-0.6,10.69,0,28.39.3,43.49,0.6,1.81-1.812,1.81-8.154,0-9.966-23.56-1.208-30.8-2.416-30.8-27.482v-51.34c6.64,2.114,13.89,3.02,24.46,3.02,54.96,0,71.57-35.938,71.57-61.609,0-17.818-11.78-50.132-67.65-50.132-11.56,0-29.29,2.114-41.37,2.114-11.08,0-26.88-.3-38.96-0.6-1.81,1.812-1.81,8.154,0,9.966C1449.89,587.272,1455.03,588.782,1455.03,613.848Zm318.6,121.1v-121.1c0-25.066,5.14-26.576,26.28-27.482,1.81-1.812,1.81-8.154,0-9.966-12.39.3-27.79,0.6-39.26,0.6-11.27,0-25.67-.3-38.96-0.6-1.81,1.812-1.81,8.154,0,9.966,21.14,0.906,26.27,2.416,26.27,27.482v48.321H1644.68V613.848c0-25.066,5.13-26.576,26.27-27.482,1.81-1.812,1.81-8.154,0-9.966-11.47.3-23.86,0.6-39.26,0.6-15.1,0-27.48-.3-38.96-0.6-1.81,1.812-1.81,8.154,0,9.966,21.14,0.906,26.28,2.416,26.28,27.482v121.1c0,25.066-5.14,26.576-26.28,27.482-1.81,1.812-1.81,8.154,0,9.966,13.29-.3,27.88-0.6,39.26-0.6,10.97,0,25.67.3,38.96,0.6,1.81-1.812,1.81-8.154,0-9.966-21.14-.906-26.27-2.416-26.27-27.482v-60.1h103.28v60.1c0,25.066-5.13,26.576-26.27,27.482-1.81,1.812-1.81,8.154,0,9.966,13.59-.3,28.05-0.6,39.26-0.6,11.26,0,25.67.3,38.96,0.6,1.81-1.812,1.81-8.154,0-9.966C1778.77,761.527,1773.63,760.017,1773.63,734.951Zm113.25-48.622c-6.64,0-8.76-.906-7.61-4.017l30.86-78.128h1.82l28.38,82.145h-53.45Zm-32.62,61.608,16.61-43.79c1.51-3.926,3.33-5.134,10.57-5.134h63.73l17.51,51.038c3.57,10.419-7.97,11.356-22.35,12.382-1.81,1.812-1.81,8.154,0,9.966,11.18-.3,27.79-0.6,39.57-0.6,12.38,0,23.85.3,34.42,0.6,1.82-1.812,1.82-8.154,0-9.966-11.71-1.057-21.92-2.053-27.18-16.61l-62.21-172.745c-4.53,2.718-12.68,6.04-16.61,6.04l-68.55,161.873c-7.85,18.724-17.07,20.536-30.2,21.442-1.81,1.812-1.81,8.154,0,9.966,7.85-.3,17.72-0.6,26.88-0.6,12.38,0,27.48.3,38.65,0.6,1.81-1.812,1.81-8.154,0-9.966C1863.75,761.648,1849.55,760.35,1854.26,747.937ZM2185.25,617.17v98.755c0,5.738,0,9.06-2.11,9.06-1.21,0-5.74-5.436-14.5-16.61L2065.06,577l-40.77-.6c-1.82,1.812-1.82,8.154,0,9.966,12.98,0.906,22.04,11.476,23.86,19.328V731.629c0,26.878-5.14,28.69-26.28,30.8-1.81,1.812-1.81,8.154,0,9.966,12.99-.3,26.7-0.6,33.83-0.6,6.97,0,20.83.3,33.52,0.6,1.81-1.812,1.81-8.154,0-9.966-21.14-2.114-26.28-3.322-26.28-30.8V639.217c0-10.269,0-14.8,2.42-14.8,1.81,0,5.13,3.322,10.27,9.967l105.4,133.182c3.32,4.53,7.24,7.248,12.08,7.248,4.22,0,6.94-3.624,6.94-9.362V617.17c0-26.878,5.14-28.69,26.28-30.8,1.81-1.812,1.81-8.154,0-9.966-12.39.3-26.67,0.6-33.83,0.6-6.43,0-20.23-.3-33.52-0.6-1.81,1.812-1.81,8.154,0,9.966C2180.12,588.48,2185.25,589.688,2185.25,617.17Zm148.89,117.781V619.586c0-19.328,3.02-30.8,13.89-30.8h6.64c22.65,0,36.85,7.852,41.98,31.106,3.32,0,7.55-.3,10.27-1.51a350.555,350.555,0,0,1-3.93-42.884,1.357,1.357,0,0,0-.9-0.906c-10.27.906-43.79,2.416-67.65,2.416h-25.97c-23.26,0-58.89-1.51-70.37-2.416a1.356,1.356,0,0,0-1.21.906c-1.21,13.59-4.23,29.294-7.55,43.79a28.223,28.223,0,0,0,10.27,1.51c6.04-24.16,19.93-32.012,39.86-32.012h14.8c11.18,0,14.2,11.476,14.2,29.9V734.951c0,25.066-5.14,26.576-29.3,27.482-1.81,1.812-1.81,8.154,0,9.966,14.8-.3,30.17-0.6,42.28-0.6,11.6,0,26.88.3,41.98,0.6,1.81-1.812,1.81-8.154,0-9.966C2339.27,761.527,2334.14,760.017,2334.14,734.951Zm154.01-48.622c-6.64,0-8.76-.906-7.61-4.017l30.87-78.128h1.81l28.39,82.145h-53.46Zm-32.61,61.608,16.61-43.79c1.51-3.926,3.32-5.134,10.57-5.134h63.72l17.51,51.038c3.57,10.419-7.97,11.356-22.34,12.382-1.82,1.812-1.82,8.154,0,9.966,11.17-.3,27.78-0.6,39.56-0.6,12.38,0,23.86.3,34.43,0.6,1.81-1.812,1.81-8.154,0-9.966-11.72-1.057-21.93-2.053-27.18-16.61L2526.2,573.078c-4.53,2.718-12.68,6.04-16.61,6.04l-68.55,161.873c-7.85,18.724-17.06,20.536-30.2,21.442-1.81,1.812-1.81,8.154,0,9.966,7.85-.3,17.73-0.6,26.88-0.6,12.38,0,27.48.3,38.65,0.6,1.82-1.812,1.82-8.154,0-9.966C2465.02,761.648,2450.82,760.35,2455.54,747.937Zm282.24-166.705c-17.45-2.416-16.79-8.154-46.26-8.154-30.63,0-57.5,20.234-57.5,52.246,0,31.831,26.12,46.358,52.69,56.475,18.37,6.976,40.62,15.462,40.62,45,0,24.462-13.65,37.146-37.75,37.146-28.2,0-46.35-12.835-53-42.884a12.018,12.018,0,0,0-9.81.906c1.2,23.254,2.41,31.106,6.04,45.9,19.02,0,27.45,6.946,54.24,6.946,13.74,0,26.75-3.352,37.26-9.905,17.37-10.872,28.39-29.476,28.39-48.683,0-32.133-24.19-46.206-49.07-55.538-17.88-6.7-48.05-18.12-48.05-43.519,0-16.912,15.28-33.824,33.07-33.824,29.32,0,38.68,18.724,44.72,38.656,3.17,0.544,7.1.3,9.82-1.812A278.383,278.383,0,0,0,2737.78,581.232Zm133,153.719V619.586c0-19.328,3.02-30.8,13.89-30.8h6.65c22.65,0,36.84,7.852,41.97,31.106,3.33,0,7.55-.3,10.27-1.51a348.556,348.556,0,0,1-3.92-42.884,1.371,1.371,0,0,0-.91-0.906c-10.27.906-43.79,2.416-67.65,2.416h-25.97c-23.26,0-58.89-1.51-70.37-2.416a1.356,1.356,0,0,0-1.21.906c-1.2,13.59-4.22,29.294-7.55,43.79a28.223,28.223,0,0,0,10.27,1.51c6.04-24.16,19.93-32.012,39.87-32.012h14.79c11.18,0,14.2,11.476,14.2,29.9V734.951c0,25.066-5.14,26.576-29.3,27.482-1.81,1.812-1.81,8.154,0,9.966,14.8-.3,30.17-0.6,42.29-0.6,11.59,0,26.87.3,41.97,0.6,1.82-1.812,1.82-8.154,0-9.966C2875.91,761.527,2870.78,760.017,2870.78,734.951Zm126.53-121.1c0-25.066,4.53-26.576,27.79-27.482,1.81-1.812,1.81-8.154,0-9.966-14.2.3-28.87,0.6-40.77,0.6-11.78,0-24.16-.3-35.94-0.6-1.81,1.812-1.81,8.154,0,9.966,18.12,0.906,23.25,2.416,23.25,27.482v87.581c0,61.608,39.72,73.386,70.67,73.386,61.91,0,76.71-38.354,76.71-92.11V613.848c0-24.25,5.13-25.368,23.25-27.482,1.82-1.812,1.82-8.154,0-9.966-11.47.3-23.79,0.6-30.8,0.6-6.49,0-21.14-.3-35.03-0.6-1.82,1.812-1.82,8.154,0,9.966,22.65,2.114,27.78,3.02,27.78,27.482v74.293c0,33.824-4.53,74.292-55.57,74.292a51.109,51.109,0,0,1-35.94-14.194c-14.79-14.194-15.4-37.146-15.4-56.776V613.848Zm205.36,132.579V601.466c0-10.57,10.57-14.8,25.37-14.8,65.23,0,86.67,52.851,86.67,99.359,0,61-36.54,76.1-79.12,76.1C3205.99,762.131,3202.67,756.091,3202.67,746.427ZM3189.68,577c-10.78,0-26.87-.3-38.95-0.6-1.82,1.812-1.82,8.154,0,9.966,21.14,0.906,26.27,2.416,26.27,27.482v121.1c0,25.066-5.13,26.576-26.27,27.482-1.82,1.812-1.82,8.154,0,9.966,11.77-.3,27.87-0.6,39.26-0.6,11.17,0,23.85.6,54.96,0.6,42.58,0,98.76-19.328,98.76-93.62,0-56.173-46.21-102.379-104.19-102.379C3218.07,576.4,3201.46,577,3189.68,577Zm224.69,157.947v-121.1c0-25.066,5.13-26.576,26.27-27.482,1.82-1.812,1.82-8.154,0-9.966-13.28.3-27.63,0.6-39.26,0.6-10.11,0-24.76-.3-38.95-0.6-1.82,1.812-1.82,8.154,0,9.966,21.14,0.906,26.27,2.416,26.27,27.482v121.1c0,25.066-5.13,26.576-26.27,27.482-1.82,1.812-1.82,8.154,0,9.966,13.59-.3,28.29-0.6,39.26-0.6,10.75,0,25.36.3,38.95,0.6,1.82-1.812,1.82-8.154,0-9.966C3419.5,761.527,3414.37,760.017,3414.37,734.951Zm131.97-151c39.87,0,72.18,33.22,72.18,94.225,0,54.058-25.97,85.768-60.4,85.768-36.84,0-71.57-32.918-71.57-90.9C3486.55,609.62,3516.44,583.95,3546.34,583.95Zm101.17,88.487c0-62.515-43.18-99.359-97.24-99.359-58.5,0-92.72,46.539-92.72,105.1,0,59.494,43.19,96.64,94.53,96.64,33.46,0,60.19-14.405,76.77-38.052C3640.87,719.64,3647.51,697.805,3647.51,672.437Z"/>
</svg>
